<svg xmlns="http://www.w3.org/2000/svg" xmlns:xlink="http://www.w3.org/1999/xlink" viewBox="0 0 139.69 139.69"><defs><style>.cls-1{fill:url(#linear-gradient);}.cls-2{fill:#fff;}</style><linearGradient id="linear-gradient" x1="69.84" x2="69.84" y2="139.69" gradientUnits="userSpaceOnUse"><stop offset="0" stop-color="#fff"/><stop offset="0.2" stop-color="#fcfcfc"/><stop offset="0.35" stop-color="#f3f3f3"/><stop offset="0.47" stop-color="#e3e3e3"/><stop offset="0.59" stop-color="#cdcdcd"/><stop offset="0.7" stop-color="#b1b1b1"/><stop offset="0.8" stop-color="#8e8e8e"/><stop offset="0.9" stop-color="#656565"/><stop offset="0.99" stop-color="#363636"/><stop offset="1" stop-color="#333"/></linearGradient></defs><title>icon1</title><g id="Layer_2" data-name="Layer 2"><g id="Layer_2-2" data-name="Layer 2"><path class="cls-1" d="M139.69,69.84A69.85,69.85,0,1,1,69.84,0,69.85,69.85,0,0,1,139.69,69.84ZM69.84,8.16a64.7,64.7,0,1,0,64.71,64.7A64.7,64.7,0,0,0,69.84,8.16Z"/><path class="cls-2" d="M83.43,33.46H74.16V22.78H65.57V33.46H56.16a5.23,5.23,0,0,0-5.23,5.23v78.24a5.23,5.23,0,0,0,5.23,5.23H83.43a5.24,5.24,0,0,0,5.24-5.23V38.69A5.24,5.24,0,0,0,83.43,33.46ZM70.79,76.2a6.88,6.88,0,0,1-2.65-.52v26.19H67V75.08a6.94,6.94,0,0,1,0-11.64V53.75h1.14v9.09A6.94,6.94,0,1,1,70.79,76.2Zm-6.3-55.65H75.31a1.92,1.92,0,1,0,0-3.84H64.49a1.92,1.92,0,1,0,0,3.84Z"/></g></g></svg>