<svg xmlns="http://www.w3.org/2000/svg" xmlns:xlink="http://www.w3.org/1999/xlink" viewBox="0 0 139.69 139.69"><defs><style>.cls-1{fill:url(#linear-gradient);}.cls-2{fill:#fff;}</style><linearGradient id="linear-gradient" x1="-14820.85" y1="-8150.22" x2="-14820.85" y2="-8010.53" gradientTransform="translate(14890.69 8150.22)" gradientUnits="userSpaceOnUse"><stop offset="0" stop-color="#fff"/><stop offset="0.19" stop-color="#fff" stop-opacity="0.99"/><stop offset="0.32" stop-color="#fff" stop-opacity="0.95"/><stop offset="0.44" stop-color="#fff" stop-opacity="0.89"/><stop offset="0.54" stop-color="#fff" stop-opacity="0.81"/><stop offset="0.64" stop-color="#fff" stop-opacity="0.69"/><stop offset="0.74" stop-color="#fff" stop-opacity="0.56"/><stop offset="0.83" stop-color="#fff" stop-opacity="0.39"/><stop offset="0.91" stop-color="#fff" stop-opacity="0.21"/><stop offset="1" stop-color="#fff" stop-opacity="0"/></linearGradient></defs><title>icon1_1</title><g id="Layer_2" data-name="Layer 2"><g id="Layer_2-2" data-name="Layer 2"><path class="cls-1" d="M139.69,69.84A69.85,69.85,0,1,1,69.84,0,69.85,69.85,0,0,1,139.69,69.84ZM69.84,8.16a64.7,64.7,0,1,0,64.71,64.7A64.7,64.7,0,0,0,69.84,8.16Z"/><path class="cls-2" d="M83.43,33.46H74.16V22.78H65.57V33.46H56.16a5.23,5.23,0,0,0-5.23,5.23v78.24a5.23,5.23,0,0,0,5.23,5.23H83.43a5.24,5.24,0,0,0,5.24-5.23V38.69A5.24,5.24,0,0,0,83.43,33.46ZM70.79,76.2a7.07,7.07,0,0,1-2.65-.52v26.19H67V75.08a6.94,6.94,0,0,1,0-11.64V53.75h1.14v9.09A6.94,6.94,0,1,1,70.79,76.2Zm-6.3-55.65H75.31a1.92,1.92,0,1,0,0-3.84H64.49a1.92,1.92,0,1,0,0,3.84Z"/></g></g></svg>