<svg xmlns="http://www.w3.org/2000/svg" xmlns:xlink="http://www.w3.org/1999/xlink" viewBox="0 0 139.69 139.69"><defs><style>.cls-1{fill:url(#linear-gradient);}.cls-2{fill:#fff;}</style><linearGradient id="linear-gradient" x1="-15047.79" y1="-8150.22" x2="-15047.79" y2="-8010.53" gradientTransform="translate(15117.63 8150.22)" gradientUnits="userSpaceOnUse"><stop offset="0" stop-color="#fff"/><stop offset="0.19" stop-color="#fff" stop-opacity="0.99"/><stop offset="0.32" stop-color="#fff" stop-opacity="0.95"/><stop offset="0.44" stop-color="#fff" stop-opacity="0.89"/><stop offset="0.54" stop-color="#fff" stop-opacity="0.81"/><stop offset="0.64" stop-color="#fff" stop-opacity="0.69"/><stop offset="0.74" stop-color="#fff" stop-opacity="0.56"/><stop offset="0.83" stop-color="#fff" stop-opacity="0.39"/><stop offset="0.91" stop-color="#fff" stop-opacity="0.21"/><stop offset="1" stop-color="#fff" stop-opacity="0"/></linearGradient></defs><title>icon2_1</title><g id="Layer_2" data-name="Layer 2"><g id="Layer_2-2" data-name="Layer 2"><path class="cls-1" d="M139.69,69.84A69.85,69.85,0,1,1,69.84,0,69.85,69.85,0,0,1,139.69,69.84ZM69.84,8.16a64.7,64.7,0,1,0,64.71,64.7A64.7,64.7,0,0,0,69.84,8.16Z"/><path class="cls-2" d="M39,78.46a30.86,30.86,0,1,1,30.86,30.86A30.86,30.86,0,0,1,39,78.46ZM69.84,96a21.4,21.4,0,1,0-21.4-21.4A21.4,21.4,0,0,0,69.84,96Z"/><circle class="cls-2" cx="69.84" cy="36.95" r="6.44"/></g></g></svg>