<svg xmlns="http://www.w3.org/2000/svg" xmlns:xlink="http://www.w3.org/1999/xlink" viewBox="0 0 139.69 139.69"><defs><style>.cls-1{fill:url(#linear-gradient);}.cls-2{fill:#fff;}</style><linearGradient id="linear-gradient" x1="69.84" x2="69.84" y2="139.69" gradientUnits="userSpaceOnUse"><stop offset="0" stop-color="#fff"/><stop offset="0.2" stop-color="#fcfcfc"/><stop offset="0.35" stop-color="#f3f3f3"/><stop offset="0.47" stop-color="#e3e3e3"/><stop offset="0.59" stop-color="#cdcdcd"/><stop offset="0.7" stop-color="#b1b1b1"/><stop offset="0.8" stop-color="#8e8e8e"/><stop offset="0.9" stop-color="#656565"/><stop offset="0.99" stop-color="#363636"/><stop offset="1" stop-color="#333"/></linearGradient></defs><title>icon2</title><g id="Layer_2" data-name="Layer 2"><g id="Layer_2-2" data-name="Layer 2"><path class="cls-1" d="M139.69,69.84A69.85,69.85,0,1,1,69.84,0,69.85,69.85,0,0,1,139.69,69.84ZM69.84,8.16a64.7,64.7,0,1,0,64.71,64.7A64.7,64.7,0,0,0,69.84,8.16Z"/><path class="cls-2" d="M39,78.46a30.86,30.86,0,1,1,30.86,30.86A30.86,30.86,0,0,1,39,78.46ZM69.84,96a21.4,21.4,0,1,0-21.4-21.4A21.4,21.4,0,0,0,69.84,96Z"/><circle class="cls-2" cx="69.84" cy="36.95" r="6.44"/></g></g></svg>